<?xml version="1.0" encoding="utf-8"?>
<svg width="948" height="508" viewBox="0 0 948 508" xmlns="http://www.w3.org/2000/svg">
<rect id="frame" x="0" y="0" width="948" height="508" fill="#f5f5f5" stroke="none" stroke-width="0"/>

<!-- Association HAS_MESSAGE -->
<g class="page_0_v7ShgnGQ diagram_page" visibility="visible">
	<line x1="299" y1="136" x2="431" y2="43" stroke="#bf812d" stroke-width="2"/>
	<text x="339" y="122.98" fill="#01665e" font-family="Verdana" font-size="12">1,1</text>
	<line x1="597" y1="43" x2="431" y2="43" stroke="#bf812d" stroke-width="2"/>
	<text x="515" y="60" fill="#01665e" font-family="Verdana" font-size="12">0,N</text>
	<g>
		<path d="M490 9 a14 14 90 0 1 14 14 V34 h-146 V23 a14 14 90 0 1 14 -14" fill="#dfc27d" stroke="#dfc27d" stroke-width="0"/>
		<path d="M504 34 v29 a14 14 90 0 1 -14 14 H372 a14 14 90 0 1 -14 -14 V34 H146" fill="#f6e8c3" stroke="#f6e8c3" stroke-width="0"/>
		<rect x="358" y="9" width="146" height="68" fill="none" rx="14" stroke="#bf812d" stroke-width="2"/>
		<line x1="358" y1="34" x2="504" y2="34" stroke="#bf812d" stroke-width="1"/>
		<text x="385" y="26.75" fill="#000" font-family="Verdana" font-size="12">HAS_MESSAGE</text>
		<text x="365" y="51.8" fill="#000" font-family="Verdana" font-size="12">FKEY id_message</text>
		<text x="365" y="68.8" fill="#000" font-family="Verdana" font-size="12">FKEY id_conversation</text>
	</g>
</g>

<!-- Association SEND_MESSAGE -->
<g class="page_0_v7ShgnGQ diagram_page" visibility="visible">
	<line x1="299" y1="136" x2="431" y2="136" stroke="#bf812d" stroke-width="2"/>
	<text x="339" y="153" fill="#01665e" font-family="Verdana" font-size="12">1,1</text>
	<line x1="597" y1="288" x2="431" y2="136" stroke="#bf812d" stroke-width="2"/>
	<text x="527" y="259.0" fill="#01665e" font-family="Verdana" font-size="12">0,N</text>
	<g>
		<path d="M478 102 a14 14 90 0 1 14 14 V127 h-122 V116 a14 14 90 0 1 14 -14" fill="#dfc27d" stroke="#dfc27d" stroke-width="0"/>
		<path d="M492 127 v29 a14 14 90 0 1 -14 14 H384 a14 14 90 0 1 -14 -14 V127 H122" fill="#f6e8c3" stroke="#f6e8c3" stroke-width="0"/>
		<rect x="370" y="102" width="122" height="68" fill="none" rx="14" stroke="#bf812d" stroke-width="2"/>
		<line x1="370" y1="127" x2="492" y2="127" stroke="#bf812d" stroke-width="1"/>
		<text x="380" y="119.75" fill="#000" font-family="Verdana" font-size="12">SEND_MESSAGE</text>
		<text x="377" y="144.8" fill="#000" font-family="Verdana" font-size="12">FKEY id_message</text>
		<text x="377" y="161.8" fill="#000" font-family="Verdana" font-size="12">FKEY id_user</text>
	</g>
</g>

<!-- Association START -->
<g class="page_0_v7ShgnGQ diagram_page" visibility="visible">
	<line x1="597" y1="288" x2="597" y2="136" stroke="#bf812d" stroke-width="2"/>
	<text x="602" y="187" fill="#01665e" font-family="Verdana" font-size="12">0,N</text>
	<line x1="597" y1="43" x2="597" y2="136" stroke="#bf812d" stroke-width="2"/>
	<text x="602" y="85" fill="#01665e" font-family="Verdana" font-size="12">2,2</text>
	<g>
		<path d="M656 102 a14 14 90 0 1 14 14 V127 h-146 V116 a14 14 90 0 1 14 -14" fill="#dfc27d" stroke="#dfc27d" stroke-width="0"/>
		<path d="M670 127 v29 a14 14 90 0 1 -14 14 H538 a14 14 90 0 1 -14 -14 V127 H146" fill="#f6e8c3" stroke="#f6e8c3" stroke-width="0"/>
		<rect x="524" y="102" width="146" height="68" fill="none" rx="14" stroke="#bf812d" stroke-width="2"/>
		<line x1="524" y1="127" x2="670" y2="127" stroke="#bf812d" stroke-width="1"/>
		<text x="577" y="119.75" fill="#000" font-family="Verdana" font-size="12">START</text>
		<text x="531" y="144.8" fill="#000" font-family="Verdana" font-size="12">FKEY id_user</text>
		<text x="531" y="161.8" fill="#000" font-family="Verdana" font-size="12">FKEY id_conversation</text>
	</g>
</g>

<!-- Association HAS_COMMENT -->
<g class="page_0_v7ShgnGQ diagram_page" visibility="visible">
	<line x1="299" y1="440" x2="168" y2="288" stroke="#bf812d" stroke-width="2"/>
	<text x="233" y="405.42" fill="#01665e" font-family="Verdana" font-size="12">0,N</text>
	<line x1="299" y1="288" x2="168" y2="288" stroke="#bf812d" stroke-width="2"/>
	<text x="236" y="305" fill="#01665e" font-family="Verdana" font-size="12">1,1</text>
	<g>
		<path d="M216 254 a14 14 90 0 1 14 14 V279 h-124 V268 a14 14 90 0 1 14 -14" fill="#dfc27d" stroke="#dfc27d" stroke-width="0"/>
		<path d="M230 279 v29 a14 14 90 0 1 -14 14 H120 a14 14 90 0 1 -14 -14 V279 H124" fill="#f6e8c3" stroke="#f6e8c3" stroke-width="0"/>
		<rect x="106" y="254" width="124" height="68" fill="none" rx="14" stroke="#bf812d" stroke-width="2"/>
		<line x1="106" y1="279" x2="230" y2="279" stroke="#bf812d" stroke-width="1"/>
		<text x="120" y="271.75" fill="#000" font-family="Verdana" font-size="12">HAS_COMMENT</text>
		<text x="113" y="296.8" fill="#000" font-family="Verdana" font-size="12">FKEY id_post</text>
		<text x="113" y="313.8" fill="#000" font-family="Verdana" font-size="12">FKEY id_comment</text>
	</g>
</g>

<!-- Association WRITE_COMMENT -->
<g class="page_0_v7ShgnGQ diagram_page" visibility="visible">
	<line x1="597" y1="288" x2="431" y2="288" stroke="#bf812d" stroke-width="2"/>
	<text x="527" y="305" fill="#01665e" font-family="Verdana" font-size="12">0,N</text>
	<line x1="299" y1="288" x2="431" y2="288" stroke="#bf812d" stroke-width="2"/>
	<text x="341" y="305" fill="#01665e" font-family="Verdana" font-size="12">1,1</text>
	<g>
		<path d="M480 254 a14 14 90 0 1 14 14 V279 h-126 V268 a14 14 90 0 1 14 -14" fill="#dfc27d" stroke="#dfc27d" stroke-width="0"/>
		<path d="M494 279 v29 a14 14 90 0 1 -14 14 H382 a14 14 90 0 1 -14 -14 V279 H126" fill="#f6e8c3" stroke="#f6e8c3" stroke-width="0"/>
		<rect x="368" y="254" width="126" height="68" fill="none" rx="14" stroke="#bf812d" stroke-width="2"/>
		<line x1="368" y1="279" x2="494" y2="279" stroke="#bf812d" stroke-width="1"/>
		<text x="376" y="271.75" fill="#000" font-family="Verdana" font-size="12">WRITE_COMMENT</text>
		<text x="375" y="296.8" fill="#000" font-family="Verdana" font-size="12">FKEY id_user</text>
		<text x="375" y="313.8" fill="#000" font-family="Verdana" font-size="12">FKEY id_comment</text>
	</g>
</g>

<!-- Association IS  -->
<g class="page_0_v7ShgnGQ diagram_page" visibility="visible">
	<line x1="881" y1="288" x2="737" y2="288" stroke="#bf812d" stroke-width="2"/>
	<text x="801" y="305" fill="#01665e" font-family="Verdana" font-size="12">1,1</text>
	<line x1="597" y1="288" x2="737" y2="288" stroke="#bf812d" stroke-width="2"/>
	<text x="645" y="305" fill="#01665e" font-family="Verdana" font-size="12">0,1</text>
	<g>
		<path d="M770 263 a14 14 90 0 1 14 14 V288 h-94 V277 a14 14 90 0 1 14 -14" fill="#dfc27d" stroke="#dfc27d" stroke-width="0"/>
		<path d="M784 288 v11 a14 14 90 0 1 -14 14 H704 a14 14 90 0 1 -14 -14 V288 H94" fill="#f6e8c3" stroke="#f6e8c3" stroke-width="0"/>
		<rect x="690" y="263" width="94" height="50" fill="none" rx="14" stroke="#bf812d" stroke-width="2"/>
		<line x1="690" y1="288" x2="784" y2="288" stroke="#bf812d" stroke-width="1"/>
		<text x="725" y="280.75" fill="#000" font-family="Verdana" font-size="12">IS</text>
		<text x="697" y="305.8" fS
	<text x="527" y="326.0" fill="#01665e" font-family="Verdana" font-size="12">0,N</text>
	<line x1="299" y1="440" x2="431" y2="440" stroke="#bf812d" stroke-width="2"/>
	<text x="343" y="457" fill="#01665e" font-family="Verdana" font-size="12">1,1</text>
	<g>
		<path d="M464 406 a14 14 90 0 1 14 14 V431 h-94 V420 a14 14 90 0 1 14 -14" fill="#dfc27d" stroke="#dfc27d" stroke-width="0"/>
		<path d="M478 431 v29 a14 14 90 0 1 -14 14 H398 a14 14 90 0 1 -14 -14 V431 H94" fill="#f6e8c3" stroke="#f6e8c3" stroke-width="0"/>
		<rect x="384" y="406" width="94" height="68" fill="none" rx="14" stroke="#bf812d" stroke-width="2"/>
		<line x1="384" y1="431" x2="478" y2="431" stroke="#bf812d" stroke-width="1"/>
		<text x="417" y="423.75" fill="#000" font-family="Verdana" font-size="12">ADD</text>
		<text x="391" y="448.8" fill="#000" font-family="Verdana" font-size="12">FKEY id_user</text>
		<text x="391" y="465.8" fill="#000" font-family="Verdana" font-size="12">FKEY id_post</text>
	</g>
</g>

<!-- Association WRITE -->
<g class="page_0_v7ShgnGQ diagram_page" visibility="visible">
	<line x1="597" y1="288" x2="597" y2="440" stroke="#bf812d" stroke-width="2"/>
	<text x="602" y="398" fill="#01665e" font-family="Verdana" font-size="12">0,N</text>
	<line x1="737" y1="440" x2="597" y2="440" stroke="#bf812d" stroke-width="2"/>
	<text x="657" y="457" fill="#01665e" font-family="Verdana" font-size="12">1,1</text>
	<g>
		<path d="M637 406 a14 14 90 0 1 14 14 V431 h-108 V420 a14 14 90 0 1 14 -14" fill="#dfc27d" stroke="#dfc27d" stroke-width="0"/>
		<path d="M651 431 v29 a14 14 90 0 1 -14 14 H557 a14 14 90 0 1 -14 -14 V431 H108" fill="#f6e8c3" stroke="#f6e8c3" stroke-width="0"/>
		<rect x="543" y="406" width="108" height="68" fill="none" rx="14" stroke="#bf812d" stroke-width="2"/>
		<line x1="543" y1="431" x2="651" y2="431" stroke="#bf812d" stroke-width="1"/>
		<text x="577" y="423.75" fill="#000" font-family="Verdana" font-size="12">WRITE</text>
		<text x="550" y="448.8" fill="#000" font-family="Verdana" font-size="12">FKEY id_user</text>
		<text x="550" y="465.8" fill="#000" font-family="Verdana" font-size="12">FKEY id_review</text>
	</g>
</g>

<!-- Association HAVE -->
<g class="page_0_v7ShgnGQ diagram_page" visibility="visible">
	<line x1="881" y1="288" x2="881" y2="440" stroke="#bf812d" stroke-width="2"/>
	<text x="886" y="347" fill="#01665e" font-family="Verdana" font-size="12">0,N</text>
	<line x1="737" y1="440" x2="881" y2="440" stroke="#bf812d" stroke-width="2"/>
	<text x="796" y="457" fill="#01665e" font-family="Verdana" font-size="12">1,1</text>
	<g>
		<path d="M925 406 a14 14 90 0 1 14 14 V431 h-116 V420 a14 14 90 0 1 14 -14" fill="#dfc27d" stroke="#dfc27d" stroke-width="0"/>
		<path d="M939 431 v29 a14 14 90 0 1 -14 14 H837 a14 14 90 0 1 -14 -14 V431 H116" fill="#f6e8c3" stroke="#f6e8c3" stroke-width="0"/>
		<rect x="823" y="406" width="116" height="68" fill="none" rx="14" stroke="#bf812d" stroke-width="2"/>
		<line x1="823" y1="431" x2="939" y2="431" stroke="#bf812d" stroke-width="1"/>
		<text x="864" y="423.75" fill="#000" font-family="Verdana" font-size="12">HAVE</text>
		<text x="830" y="448.8" fill="#000" font-family="Verdana" font-size="12">FKEY id_botanist</text>
		<text x="830" y="465.8" fill="#000" font-family="Verdana" font-size="12">FKEY id_review</text>
	</g>
</g>

<!-- Entity CONVERSATION -->
<g class="page_0_v7ShgnGQ diagram_page" visibility="visible">
	<g>
		<rect x="542" y="18" width="110" height="25" fill="#80cdc1" stroke="#80cdc1" stroke-width="0" opacity="1"/>
		<rect x="542" y="43" width="110" height="25" fill="#c7eae5" stroke="#c7eae5" stroke-width="0" opacity="1"/>
		<rect x="542" y="18" width="110" height="50" fill="none" stroke="#35978f" stroke-width="2" opacity="1"/>
		<line x1="542" y1="43" x2="652" y2="43" stroke="#35978f" stroke-width="1"/>
	</g>
	<text x="548" y="35.75" fill="#000" font-family="Verdana" font-size="12">CONVERSATION</text>
	<text x="547" y="60.8" fill="#000" font-family="Verdana" font-size="12">id</text>
	<line x1="547" y1="63" x2="559" y2="63" stroke="#000" stroke-width="1"/>
</g>

<!-- Entity MESSAGE -->
<g class="page_0_v7ShgnGQ diagram_page" visibility="visible">
	<g>
		<rect x="264" y="102" width="70" height="25" fill="#80cdc1" stroke="#80cdc1" stroke-width="0" opacity="1"/>
		<rect x="264" y="127" width="70" height="43" fill="#c7eae5" stroke="#c7eae5" stroke-width="0" opacity="1"/>
		<rect x="264" y="102" width="70" height="68" fill="none" stroke="#35978f" stroke-width="2" opacity="1"/>
		<line x1="264" y1="127" x2="334" y2="127" stroke="#35978f" stroke-width="1"/>
	</g>
	<text x="269" y="119.75" fill="#000" font-family="Verdana" font-size="12">MESSAGE</text>
	<text x="269" y="144.8" fill="#000" font-family="Verdana" font-size="12">id</text>
	<line x1="269" y1="147" x2="281" y2="147" stroke="#000" stroke-width="1"/>
	<text x="269" y="161.8" fill="#000" font-family="Verdana" font-size="12">content</text>
</g>

<!-- Entity COMMENT -->
<g class="page_0_v7ShgnGQ diagram_page" visibility="visible">
	<g>
		<rect x="262" y="254" width="74" height="25" fill="#80cdc1" stroke="#80cdc1" stroke-width="0" opacity="1"/>
		<rect x="262" y="279" width="74" height="43" fill="#c7eae5" stroke="#c7eae5" stroke-width="0" opacity="1"/>
		<rect x="262" y="254" width="74" height="68" fill="none" stroke="#35978f" stroke-width="2" opacity="1"/>
		<line x1="262" y1="279" x2="336" y2="279" stroke="#35978f" stroke-width="1"/>
	</g>
	<text x="268" y="271.75" fill="#000" font-family="Verdana" font-size="12">COMMENT</text>
	<text x="267" y="296.8" fill="#000" font-family="Verdana" font-size="12">id</text>
	<line x1="267" y1="299" x2="279" y2="299" stroke="#000" stroke-width="1"/>
	<text x="267" y="313.8" fill="#000" font-family="Verdana" font-size="12">content</text>
</g>

<!-- Entity USER -->
<g class="page_0_v7ShgnGQ diagram_page" visibility="visible">
	<g>
		<rect x="554" y="195" width="86" height="25" fill="#80cdc1" stroke="#80cdc1" stroke-width="0" opacity="1"/>
		<rect x="554" y="220" width="86" height="161" fill="#c7eae5" stroke="#c7eae5" stroke-width="0" opacity="1"/>
		<rect x="554" y="195" width="86" height="186" fill="none" stroke="#35978f" stroke-width="2" opacity="1"/>
		<line x1="554" y1="220" x2="640" y2="220" stroke="#35978f" stroke-width="1"/>
	</g>
	<text x="580" y="212.75" fill="#000" font-family="Verdana" font-size="12">USER</text>
	<text x="559" y="237.8" fill="#000" font-family="Verdana" font-size="12">id</text>
	<line x1="559" y1="240" x2="571" y2="240" stroke="#000" stroke-width="1"/>
	<text x="559" y="254.8" fill="#000" font-family="Verdana" font-size="12">firstname</text>
	<text x="559" y="271.8" fill="#000" font-family="Verdana" font-size="12">lastname</text>
	<text x="559" y="288.8" fill="#000" font-family="Verdana" font-size="12">email</text>
	<text x="559" y="305.8" fill="#000" font-family="Verdana" font-size="12">password</text>
	<text x="559" y="322.8" fill="#000" font-family="Verdana" font-size="12">user_picture</text>
	<text x="559" y="339.8" fill="#000" font-family="Verdana" font-size="12">phone</text>
	<text x="559" y="356.8" fill="#000" font-family="Verdana" font-size="12">description</text>
	<text x="559" y="373.8" fill="#000" font-family="Verdana" font-size="12">role</text>
</g>

<!-- Entity BOTANIST -->
<g class="page_0_v7ShgnGQ diagram_page" visibility="visible">
	<g>
		<rect x="827" y="246" width="108" height="25" fill="#80cdc1" stroke="#80cdc1" stroke-width="0" opacity="1"/>
		<rect x="827" y="271" width="108" height="59" fill="#c7eae5" stroke="#c7eae5" stroke-width="0" opacity="1"/>
		<rect x="827" y="246" width="108" height="84" fill="none" stroke="#35978f" stroke-width="2" opacity="1"/>
		<line x1="827" y1="271" x2="935" y2="271" stroke="#35978f" stroke-width="1"/>
	</g>
	<text x="849" y="263.75" fill="#000" font-family="Verdana" font-size="12">BOTANIST</text>
	<text x="832" y="288.8" fill="#000" font-family="Verdana" font-size="12">id</text>
	<line x1="832" y1="291" x2="844" y2="291" stroke="#000" stroke-width="1"/>
	<text x="832" y="305.8" fill="#000" font-family="Verdana" font-size="12">address</text>
	<text x="832" y="322.8" fill="#000" font-family="Verdana" font-size="12">company_name</text>
</g>

<!-- Entity PLANT -->
<g class="page_0_v7ShgnGQ diagram_page" visibility="visible">
	<g>
		<rect x="9" y="381" width="78" height="25" fill="#80cdc1" stroke="#80cdc1" stroke-width="0" opacity="1"/>
		<rect x="9" y="406" width="78" height="93" fill="#c7eae5" stroke="#c7eae5" stroke-width="0" opacity="1"/>
		<rect x="9" y="381" width="78" height="118" fill="none" stroke="#35978f" stroke-width="2" opacity="1"/>
		<line x1="9" y1="406" x2="87" y2="406" stroke="#35978f" stroke-width="1"/>
	</g>
	<text x="28" y="398.75" fill="#000" font-family="Verdana" font-size="12">PLANT</text>
	<text x="14" y="423.8" fill="#000" font-family="Verdana" font-size="12">id</text>
	<line x1="14" y1="426" x2="26" y2="426" stroke="#000" stroke-width="1"/>
	<text x="14" y="440.8" fill="#000" font-family="Verdana" font-size="12">name</text>
	<text x="14" y="457.8" fill="#000" font-family="Verdana" font-size="12">description</text>
	<text x="14" y="474.8" fill="#000" font-family="Verdana" font-size="12">picture</text>
	<text x="14" y="491.8" fill="#000" font-family="Verdana" font-size="12">type</text>
</g>

<!-- Entity POST -->
<g class="page_0_v7ShgnGQ diagram_page" visibility="visible">
	<g>
		<rect x="260" y="389" width="78" height="25" fill="#80cdc1" stroke="#80cdc1" stroke-width="0" opacity="1"/>
		<rect x="260" y="414" width="78" height="77" fill="#c7eae5" stroke="#c7eae5" stroke-width="0" opacity="1"/>
		<rect x="260" y="389" width="78" height="102" fill="none" stroke="#35978f" stroke-width="2" opacity="1"/>
		<line x1="260" y1="414" x2="338" y2="414" stroke="#35978f" stroke-width="1"/>
	</g>
	<text x="283" y="406.75" fill="#000" font-family="Verdana" font-size="12">POST</text>
	<text x="265" y="431.8" fill="#000" font-family="Verdana" font-size="12">id</text>
	<line x1="265" y1="434" x2="277" y2="434" stroke="#000" stroke-width="1"/>
	<text x="265" y="448.8" fill="#000" font-family="Verdana" font-size="12">description</text>
	<text x="265" y="465.8" fill="#000" font-family="Verdana" font-size="12">picture</text>
	<text x="265" y="482.8" fill="#000" font-family="Verdana" font-size="12">date</text>
</g>

<!-- Entity REVIEW -->
<g class="page_0_v7ShgnGQ diagram_page" visibility="visible">
	<g>
		<rect x="683" y="398" width="108" height="25" fill="#80cdc1" stroke="#80cdc1" stroke-width="0" opacity="1"/>
		<rect x="683" y="423" width="108" height="59" fill="#c7eae5" stroke="#c7eae5" stroke-width="0" opacity="1"/>
		<rect x="683" y="398" width="108" height="84" fill="none" stroke="#35978f" stroke-width="2" opacity="1"/>
		<line x1="683" y1="423" x2="791" y2="423" stroke="#35978f" stroke-width="1"/>
	</g>
	<text x="712" y="415.75" fill="#000" font-family="Verdana" font-size="12">REVIEW</text>
	<text x="688" y="440.8" fill="#000" font-family="Verdana" font-size="12">id</text>
	<line x1="688" y1="443" x2="700" y2="443" stroke="#000" stroke-width="1"/>
	<text x="688" y="457.8" fill="#000" font-family="Verdana" font-size="12">address</text>
	<text x="688" y="474.8" fill="#000" font-family="Verdana" font-size="12">company_name</text>
</g>
</svg>
